<?xml version="1.0" encoding="utf-8"?>
<!-- Generator: Adobe Illustrator 23.0.1, SVG Export Plug-In . SVG Version: 6.00 Build 0)  -->
<svg version="1.1" id="Layer_1" xmlns="http://www.w3.org/2000/svg" xmlns:xlink="http://www.w3.org/1999/xlink" x="0px" y="0px"
	 viewBox="0 0 800 800" style="enable-background:new 0 0 800 800;" xml:space="preserve">
<style type="text/css">
	.st0{fill:#FFFFFF;}
</style>
<path class="st0" d="M492.7,257.3c9.8,9.8,9.8,25.6,0,35.4c0,0,0,0,0,0L385.3,400l107.4,107.3c9.8,9.8,9.8,25.6,0,35.4
	s-25.6,9.8-35.4,0L350,435.3L242.7,542.7c-9.8,9.8-25.6,9.8-35.4,0c-9.8-9.8-9.8-25.6,0-35.4L314.7,400L207.3,292.7
	c-9.8-9.8-9.8-25.6,0-35.4c9.8-9.8,25.6-9.8,35.4,0L350,364.6l107.3-107.4C467.1,247.5,482.9,247.5,492.7,257.3
	C492.7,257.3,492.7,257.3,492.7,257.3z"/>
<path class="st0" d="M100,50C44.8,50,0,94.8,0,150v500c0,55.2,44.8,100,100,100h354c29.2,0,56.9-12.7,76-34.9l242.1-282.5
	c16.1-18.7,16.1-46.4,0-65.1L530,85c-19-22.2-46.8-35-76-35H100z M454,100c14.6,0,28.5,6.4,38,17.5L734.1,400L491.9,682.5
	c-9.5,11.1-23.4,17.5-38,17.5H100c-27.6,0-50-22.4-50-50V150c0-27.6,22.4-50,50-50H454z"/>
</svg>
